name C:/MyDriveSym/Projects/mobilecap/Data\Session20210910_0002\mocap\ForceDataProcessed\walkingTS1_forces.mot
datacolumns 19
datarows 14
range 0.81450000 0.82100000
endheader 
time	R_ground_force_vx	R_ground_force_vy	R_ground_force_vz	R_ground_force_px	R_ground_force_py	R_ground_force_pz	R_ground_torque_x	R_ground_torque_y	R_ground_torque_z	L_ground_force_vx	L_ground_force_vy	L_ground_force_vz	L_ground_force_px	L_ground_force_py	L_ground_force_pz	L_ground_torque_x	L_ground_torque_y	L_ground_torque_z	
          0.81450000	         13.04899000	         40.70445500	         -1.22826100	          0.39213800	          0.00600000	         -0.22228200	          0.00000000	         -0.41382300	          0.00000000	       -119.90797000	        877.61859800	         66.63109000	          0.89458200	          0.00600000	         -0.45487800	          0.00000000	         -2.38098400	          0.00000000	
          0.81500000	         12.74484100	         39.64271300	         -1.18867800	          0.39344100	          0.00600000	         -0.22226300	          0.00000000	         -0.40821800	          0.00000000	       -119.89409300	        878.49593400	         66.58276900	          0.89485200	          0.00600000	         -0.45488400	          0.00000000	         -2.38863700	          0.00000000	
          0.81550000	         12.44378400	         38.59329500	         -1.14964300	          0.39479400	          0.00600000	         -0.22224200	          0.00000000	         -0.40264700	          0.00000000	       -119.87837200	        879.36300800	         66.53376900	          0.89512100	          0.00600000	         -0.45489000	          0.00000000	         -2.39617900	          0.00000000	
          0.81600000	         12.14581500	         37.55613700	         -1.11114700	          0.39619800	          0.00600000	         -0.22221900	          0.00000000	         -0.39711200	          0.00000000	       -119.86081500	        880.21980300	         66.48410500	          0.89539000	          0.00600000	         -0.45489600	          0.00000000	         -2.40361000	          0.00000000	
          0.81650000	         11.85093200	         36.53117800	         -1.07318300	          0.39765900	          0.00600000	         -0.22219500	          0.00000000	         -0.39161300	          0.00000000	       -119.84142500	        881.06630000	         66.43379500	          0.89565900	          0.00600000	         -0.45490300	          0.00000000	         -2.41093100	          0.00000000	
          0.81700000	         11.55912900	         35.51835500	         -1.03574500	          0.39917800	          0.00600000	         -0.22217000	          0.00000000	         -0.38615300	          0.00000000	       -119.82021100	        881.90248600	         66.38285600	          0.89592900	          0.00600000	         -0.45491000	          0.00000000	         -2.41814000	          0.00000000	
          0.81750000	         11.27040200	         34.51760500	         -0.99882700	          0.40076000	          0.00600000	         -0.22214200	          0.00000000	         -0.38073100	          0.00000000	       -119.79717700	        882.72834500	         66.33130300	          0.89619800	          0.00600000	         -0.45491700	          0.00000000	         -2.42524000	          0.00000000	
          0.81800000	         10.98474600	         33.52886200	         -0.96242000	          0.40240900	          0.00600000	         -0.22211300	          0.00000000	         -0.37535000	          0.00000000	       -119.77232900	        883.54386400	         66.27915300	          0.89646700	          0.00600000	         -0.45492400	          0.00000000	         -2.43223000	          0.00000000	
          0.81850000	         10.70215600	         32.55206300	         -0.92651900	          0.40412900	          0.00600000	         -0.22208200	          0.00000000	         -0.37001100	          0.00000000	       -119.74567400	        884.34902900	         66.22642200	          0.89673600	          0.00600000	         -0.45493200	          0.00000000	         -2.43911000	          0.00000000	
          0.81900000	         10.42262600	         31.58714100	         -0.89111700	          0.40592600	          0.00600000	         -0.22204900	          0.00000000	         -0.36471500	          0.00000000	       -119.71721800	        885.14383000	         66.17312400	          0.89700400	          0.00600000	         -0.45494000	          0.00000000	         -2.44588100	          0.00000000	
          0.81950000	         10.14615000	         30.63403200	         -0.85620800	          0.40780400	          0.00600000	         -0.22201300	          0.00000000	         -0.35946300	          0.00000000	       -119.68696700	        885.92825600	         66.11927500	          0.89727300	          0.00600000	         -0.45494700	          0.00000000	         -2.45254300	          0.00000000	
          0.82000000	          9.87272300	         29.69266800	         -0.82178400	          0.40977000	          0.00600000	         -0.22197500	          0.00000000	         -0.35425800	          0.00000000	       -119.65492800	        886.70229600	         66.06489000	          0.89754200	          0.00600000	         -0.45495600	          0.00000000	         -2.45909700	          0.00000000	
          0.82050000	          9.60233600	         28.76298300	         -0.78784000	          0.41183000	          0.00600000	         -0.22193500	          0.00000000	         -0.34910100	          0.00000000	       -119.62110800	        887.46594300	         66.00998300	          0.89781100	          0.00600000	         -0.45496400	          0.00000000	         -2.46554200	          0.00000000	
          0.82100000	          9.33498400	         27.84490900	         -0.75437000	          0.41399100	          0.00600000	         -0.22189200	          0.00000000	         -0.34399300	          0.00000000	       -119.58551400	        888.21919000	         65.95456800	          0.89807900	          0.00600000	         -0.45497200	          0.00000000	         -2.47188000	          0.00000000	
